<?xml version="1.0" encoding="UTF-8"?>
<svg version="1.1" xmlns="http://www.w3.org/2000/svg" width="500" height="500">
<path d="M0 0 C156.76213295 0 156.76213295 0 179.5625 17.625 C180.18334473 18.10469238 180.80418945 18.58438477 181.44384766 19.07861328 C185.87422163 22.62266488 185.87422163 22.62266488 187 26 C187.66 26 188.32 26 189 26 C193 31.41176471 193 31.41176471 193 34 C193.66 34 194.32 34 195 34 C201.64642043 45.05521265 205.56449415 56.05359896 206 69 C206.02835938 69.78117187 206.05671875 70.56234375 206.0859375 71.3671875 C206.39013461 88.94978072 200.58130043 103.29773251 188.375 116 C185.15407514 119.02480297 181.66133748 121.53420129 178 124 C178.86882812 124.44730469 179.73765625 124.89460938 180.6328125 125.35546875 C192.67058824 131.67058824 192.67058824 131.67058824 197 136 C197 136.66 197 137.32 197 138 C197.66 138 198.32 138 199 138 C199 138.66 199 139.32 199 140 C199.66 140 200.32 140 201 140 C202.7265625 142.08203125 202.7265625 142.08203125 204.625 144.8125 C205.25664062 145.70582031 205.88828125 146.59914063 206.5390625 147.51953125 C208 150 208 150 208 153 C208.66 153 209.32 153 210 153 C218.74660157 173.13368662 220.81637616 192.74724673 213.33203125 213.8828125 C209.69773131 222.38771382 204.81643279 230.81499479 199 238 C198.34 238 197.68 238 197 238 C197 238.66 197 239.32 197 240 C196.34 240 195.68 240 195 240 C195 240.66 195 241.32 195 242 C192.76770692 243.87078813 190.54076213 245.60526456 188.1875 247.3125 C187.50260498 247.81015869 186.81770996 248.30781738 186.11206055 248.82055664 C180.67985509 252.68056563 175.27148486 255.69618923 169 258 C168.01257813 258.36609375 167.02515625 258.7321875 166.0078125 259.109375 C154.67517378 263.08877486 144.36399713 264.29292232 132.37060547 264.22705078 C130.89757867 264.22643696 129.42455127 264.22670706 127.95152473 264.2277813 C124.0341655 264.22822975 120.11693036 264.21670295 116.19960022 264.20256042 C112.51335288 264.19110549 108.82713456 264.19063067 105.14086914 264.18920898 C94.38556322 264.17874635 83.63028001 264.15082382 72.875 264.125 C48.82625 264.08375 24.7775 264.0425 0 264 C0 176.88 0 89.76 0 0 Z M113.66113281 41.09179688 C112.92903091 41.10155045 112.19692902 41.11130402 111.44264221 41.12135315 C109.02946635 41.1535659 106.61629574 41.18615611 104.203125 41.21875 C102.52732372 41.24119352 100.85152212 41.26361344 99.17572021 41.28601074 C94.76987393 41.34495877 90.36403201 41.40422711 85.95819092 41.46356201 C80.66929952 41.53472264 75.38040279 41.60548568 70.09150696 41.67631531 C62.06100051 41.78390552 54.03050101 41.89200095 46 42 C46 63.78 46 85.56 46 108 C60.83883704 108.11648929 60.83883704 108.11648929 75.67773438 108.1953125 C81.73671615 108.21915395 87.7954544 108.2472515 93.85424805 108.30175781 C98.7431523 108.3454605 103.63179511 108.36918841 108.52087975 108.37950897 C110.37906696 108.38685673 112.23724109 108.40120442 114.09531593 108.42292023 C124.10161242 108.53513511 132.82566772 108.56378857 142 104 C142.65357986 103.69402893 143.30715973 103.38805786 143.98054504 103.07281494 C145.33849607 102.41823271 146.67385625 101.71683446 148 101 C148 100.34 148 99.68 148 99 C148.89525391 98.61714844 148.89525391 98.61714844 149.80859375 98.2265625 C155.05699621 95.28895399 158.68610292 88.94326355 160.52734375 83.3203125 C162.5981467 73.15455254 161.07660069 63.5407298 155.59765625 54.75 C149.48745087 46.86200871 140.64750315 43.18594433 131 41.625 C125.20864239 40.9010803 119.48484981 41.01252168 113.66113281 41.09179688 Z M46 148 C46 172.75 46 197.5 46 223 C61.46875 223.2475 61.46875 223.2475 77.25 223.5 C82.06706543 223.57831055 82.06706543 223.57831055 86.98144531 223.65820312 C104.82970645 223.94566828 104.82970645 223.94566828 122.6796875 224.06640625 C123.44637756 224.06922607 124.21306763 224.0720459 125.00299072 224.07495117 C137.82441411 224.06030439 147.00507786 221.16506878 158 215 C158 214.34 158 213.68 158 213 C159.32 212.34 160.64 211.68 162 211 C162 210.34 162 209.68 162 209 C162.66 209 163.32 209 164 209 C170.44716087 198.25473188 172.60960541 186.85487168 170.3125 174.4375 C167.50272769 163.70756414 161.48254072 157.65492451 152 152 C145.24954381 148.71059266 139.52632619 147.42116447 132.05224609 147.54589844 C131.11444305 147.54531433 130.17664001 147.54473022 129.2104187 147.54412842 C126.14769909 147.54688842 123.08598453 147.57788093 120.0234375 147.609375 C117.88539155 147.61684481 115.74733872 147.62253424 113.60928345 147.62652588 C108.00979369 147.64172383 102.41072567 147.68095508 96.81140137 147.7253418 C90.0782289 147.77365627 83.34491461 147.79185631 76.61161804 147.81515503 C66.40745296 147.85380969 56.2042114 147.9305048 46 148 Z " fill="#01FD84" transform="translate(141,117)"/>
<path d="M0 0 C141.83333333 0 141.83333333 0 156 5 C156 5.33 156 5.66 156 6 C154.824375 5.855625 153.64875 5.71125 152.4375 5.5625 C146.69299107 4.91096624 140.93035075 4.60470435 135.16015625 4.28125 C132 4 132 4 130 3 C87.76 2.67 45.52 2.34 2 2 C2 87.8 2 173.6 2 262 C49.85 262 97.7 262 147 262 C147 261.34 147 260.68 147 260 C150.3 260 153.6 260 157 260 C157.33 259.01 157.66 258.02 158 257 C162.29 256.67 166.58 256.34 171 256 C171 255.34 171 254.68 171 254 C173.64738916 252.5393715 174.89448334 252 178 252 C178 251.34 178 250.68 178 250 C179.32 250 180.64 250 182 250 C182.33 248.35 182.66 246.7 183 245 C184.32 245.33 185.64 245.66 187 246 C185.68197156 249.95408531 183.33337481 250.93812467 179.875 252.875 C179.25334961 253.22578613 178.63169922 253.57657227 177.99121094 253.93798828 C163.60408678 261.7649005 148.58989894 264.31613233 132.37060547 264.22705078 C130.89757867 264.22643696 129.42455127 264.22670706 127.95152473 264.2277813 C124.0341655 264.22822975 120.11693036 264.21670295 116.19960022 264.20256042 C112.51335288 264.19110549 108.82713456 264.19063067 105.14086914 264.18920898 C94.38556322 264.17874635 83.63028001 264.15082382 72.875 264.125 C48.82625 264.08375 24.7775 264.0425 0 264 C0 176.88 0 89.76 0 0 Z " fill="#20AD69" transform="translate(141,117)"/>
<path d="M0 0 C0.85809265 0.00202423 1.7161853 0.00404846 2.60028076 0.00613403 C3.94924942 0.00350555 3.94924942 0.00350555 5.32546997 0.00082397 C8.31894831 -0.00360067 11.31236816 -0.00065196 14.30584717 0.00271606 C16.38556937 0.00204261 18.4652915 0.00107224 20.54501343 -0.00018311 C24.91826115 -0.00166138 29.29148852 0.00049644 33.66473389 0.00515747 C39.24735346 0.01081956 44.82992459 0.00759909 50.41254234 0.00158501 C54.71589515 -0.00204736 59.0192367 -0.00086916 63.32258987 0.0017128 C65.37890249 0.00237652 67.43521616 0.00157317 69.49152756 -0.00076675 C90.15045558 -0.01909419 90.15045558 -0.01909419 99.03240967 1.13552856 C99.03240967 2.12552856 99.03240967 3.11552856 99.03240967 4.13552856 C100.35240967 4.79552856 101.67240967 5.45552856 103.03240967 6.13552856 C102.70240967 6.79552856 102.37240967 7.45552856 102.03240967 8.13552856 C100.98053467 7.45490356 100.98053467 7.45490356 99.90740967 6.76052856 C93.77126294 3.29227172 88.42297162 2.83365523 81.53875732 2.81668091 C80.60153839 2.80663528 79.66431946 2.79658966 78.69869995 2.78623962 C75.61463 2.75545888 72.53064668 2.73838659 69.44647217 2.72146606 C67.3026963 2.70275032 65.15892777 2.68317661 63.01516724 2.66278076 C57.3829786 2.61149658 51.75076608 2.57185088 46.11846924 2.53463745 C39.35519879 2.48752618 32.59204646 2.42594419 25.82887268 2.36679077 C15.56343278 2.27862381 5.29801501 2.20882676 -4.96759033 2.13552856 C-4.96759033 26.88552856 -4.96759033 51.63552856 -4.96759033 77.13552856 C16.48240967 77.13552856 37.93240967 77.13552856 60.03240967 77.13552856 C60.03240967 77.46552856 60.03240967 77.79552856 60.03240967 78.13552856 C51.44435246 78.15865492 42.85630818 78.17644514 34.26822758 78.18734074 C30.28083767 78.19256893 26.29346899 78.19966541 22.30609131 78.21096802 C18.46115852 78.22179918 14.61624622 78.22780588 10.77129936 78.23040581 C9.30121984 78.23225964 7.83114149 78.23587947 6.36107063 78.24125862 C4.30886499 78.24847212 2.256745 78.24951938 0.20452881 78.24905396 C-0.96573349 78.25127457 -2.13599579 78.25349518 -3.34172058 78.25578308 C-5.96759033 78.13552856 -5.96759033 78.13552856 -6.96759033 77.13552856 C-7.06784728 74.76791281 -7.10377969 72.42945783 -7.09698486 70.06130981 C-7.09873718 69.32149872 -7.1004895 68.58168762 -7.10229492 67.81945801 C-7.10671343 65.36229133 -7.10377546 62.90519603 -7.10040283 60.44802856 C-7.10107587 58.74791449 -7.1020459 57.04780051 -7.103302 55.34768677 C-7.10477897 51.77988776 -7.10262445 48.21211374 -7.09796143 44.64431763 C-7.09226413 40.06064363 -7.09554314 35.47702817 -7.10153389 30.89335632 C-7.10513953 27.38133296 -7.10400091 23.86932358 -7.1014061 20.3572998 C-7.10073683 18.66672763 -7.10156523 16.97615421 -7.10388565 15.2855835 C-7.10641222 12.92693699 -7.10257155 10.56838662 -7.09698486 8.20974731 C-7.09900909 7.50425751 -7.10103333 6.7987677 -7.1031189 6.07189941 C-7.0751682 -0.26602166 -6.2258977 0.02261173 0 0 Z " fill="#17AC68" transform="translate(191.96759033203125,262.8644714355469)"/>
<path d="M0 0 C25.08 0 50.16 0 76 0 C76 0.33 76 0.66 76 1 C51.25 1 26.5 1 1 1 C1 22.78 1 44.56 1 67 C15.83905335 66.93814445 15.83905335 66.93814445 30.67773438 66.83984375 C36.73657447 66.79163285 42.79523501 66.74754163 48.85424805 66.72900391 C53.74335304 66.71377554 58.63198587 66.67922111 63.52087975 66.63169098 C65.37898321 66.61694065 67.23715411 66.60896266 69.09531593 66.60811615 C79.16997187 66.598917 87.70944794 66.36853604 97 62 C98.99659018 61.32318977 100.99464622 60.65038501 103 60 C103 59.34 103 58.68 103 58 C103.886875 57.34 104.77375 56.68 105.6875 56 C110.69727581 52.03491677 113.02308151 45.93075547 115 40 C115.09543669 37.89758584 115.12985484 35.79207357 115.125 33.6875 C115.12757813 32.57761719 115.13015625 31.46773437 115.1328125 30.32421875 C115.00527335 27.13198875 114.59757773 24.13491173 114 21 C114.99 21 115.98 21 117 21 C117.08732726 24.89569135 117.14050185 28.79112982 117.1875 32.6875 C117.21263672 33.79029297 117.23777344 34.89308594 117.26367188 36.02929688 C117.27333984 37.09599609 117.28300781 38.16269531 117.29296875 39.26171875 C117.3086792 40.24100342 117.32438965 41.22028809 117.34057617 42.22924805 C116.93951728 45.49205618 115.84389521 47.30840895 114 50 C113.484375 50.86625 112.96875 51.7325 112.4375 52.625 C109.23076923 57.92307692 109.23076923 57.92307692 106 59 C105.67 59.99 105.34 60.98 105 62 C100.61415469 65.53697202 95.4075775 66.10748721 90 67 C90 67.66 90 68.32 90 69 C60.3 68.67 30.6 68.34 0 68 C0 45.56 0 23.12 0 0 Z " fill="#0D6335" transform="translate(186,158)"/>
<path d="M0 0 C1.98 0.495 1.98 0.495 4 1 C2.68192125 4.95423626 0.33331872 5.93784065 -3.125 7.875 C-3.7444751 8.22506104 -4.3639502 8.57512207 -5.00219727 8.93579102 C-15.71582494 14.77018412 -27.16792232 18.13073745 -39.42247009 18.12025452 C-41.29222504 18.12231651 -41.29222504 18.12231651 -43.19975281 18.12442017 C-44.5627749 18.12088199 -45.92579675 18.1172472 -47.28881836 18.11352539 C-48.7381083 18.11324302 -50.18739838 18.11340222 -51.63668823 18.1139679 C-55.55558286 18.11425393 -59.47444666 18.1083885 -63.39333415 18.10139394 C-67.49460743 18.09512816 -71.59588148 18.09455405 -75.69715881 18.09336853 C-83.45657092 18.09026471 -91.21596887 18.08206413 -98.97537476 18.07201904 C-107.81212638 18.06082841 -116.64887869 18.05534002 -125.48563564 18.05032361 C-143.65709844 18.03988071 -161.82854808 18.02229968 -180 18 C-180 17.67 -180 17.34 -180 17 C-132.48 17 -84.96 17 -36 17 C-36 16.34 -36 15.68 -36 15 C-32.7 15 -29.4 15 -26 15 C-25.67 14.01 -25.34 13.02 -25 12 C-20.71 11.67 -16.42 11.34 -12 11 C-12 10.34 -12 9.68 -12 9 C-9.35261084 7.5393715 -8.10551666 7 -5 7 C-5 6.34 -5 5.68 -5 5 C-3.68 5 -2.36 5 -1 5 C-0.67 3.35 -0.34 1.7 0 0 Z " fill="#18EC8B" transform="translate(324,362)"/>
<path d="M0 0 C-2.65143838 2.82944625 -4.08425601 3.56834037 -8 4 C-10.8616142 4.06031668 -13.69423052 4.06826563 -16.55395508 4.02172852 C-17.40324585 4.01212097 -18.25253662 4.00251343 -19.12756348 3.99261475 C-21.9249731 3.95972596 -24.72222158 3.91935527 -27.51953125 3.87890625 C-29.46294086 3.85459524 -31.40635637 3.83075217 -33.34977722 3.80735779 C-38.45765932 3.74461451 -43.56543648 3.6755203 -48.67321777 3.60510254 C-53.88821648 3.53433089 -59.10328942 3.46956681 -64.31835938 3.40429688 C-74.5456545 3.27541032 -84.77284883 3.13981417 -95 3 C-95 2.34 -95 1.68 -95 1 C-83.9424362 0.86899357 -72.88486579 0.73856027 -61.82728672 0.60884857 C-56.69222752 0.54859361 -51.55717075 0.48814493 -46.42211914 0.42724609 C-41.46193405 0.36842832 -36.50174311 0.31012915 -31.54154778 0.25218201 C-29.65383629 0.23003925 -27.76612694 0.20771301 -25.87841988 0.18519592 C-23.22437203 0.15356977 -20.57031716 0.12260973 -17.91625977 0.09179688 C-16.75855072 0.07777077 -16.75855072 0.07777077 -15.57745361 0.0634613 C-10.38465379 0.00409492 -5.19314443 -0.00755685 0 0 Z " fill="#1AE287" transform="translate(281,340)"/>
<path d="M0 0 C17.58622882 -0.07034818 35.17241319 -0.12311378 52.75875092 -0.15543652 C60.92596668 -0.17084915 69.09309457 -0.19183027 77.26025391 -0.22631836 C84.38585967 -0.25639364 91.51140174 -0.27561563 98.63706923 -0.28226548 C102.40361901 -0.28614734 106.16998673 -0.29515041 109.93647766 -0.31719017 C142.24168594 -0.49876203 142.24168594 -0.49876203 153 3 C153.99 3.99 153.99 3.99 155 5 C153.824375 4.855625 152.64875 4.71125 151.4375 4.5625 C145.69299107 3.91096624 139.93035075 3.60470435 134.16015625 3.28125 C131 3 131 3 129 2 C127.28978619 1.89510182 125.57554035 1.853426 123.8621521 1.84178162 C122.7739769 1.8319928 121.6858017 1.82220398 120.56465149 1.81211853 C119.36559677 1.80636307 118.16654205 1.8006076 116.93115234 1.79467773 C115.67264969 1.78477814 114.41414703 1.77487854 113.11750793 1.76467896 C109.66114546 1.73760233 106.20476928 1.71660774 102.7483592 1.69667697 C99.13817304 1.67483439 95.52802922 1.64743727 91.9178772 1.62062073 C85.07914366 1.57067042 78.24038666 1.52574029 71.40160716 1.48259836 C63.61691678 1.43324594 55.83226889 1.37832043 48.04761958 1.32291877 C32.03178553 1.20906284 16.01591256 1.10223169 0 1 C0 0.67 0 0.34 0 0 Z " fill="#2BE792" transform="translate(142,118)"/>
<path d="M0 0 C0.33 0 0.66 0 1 0 C2.68522119 16.09988101 3.51901421 33.47555315 -7 47 C-8.04916965 43.59019864 -8.37043252 40.55615217 -8 37 C-7.03707031 36.12408203 -7.03707031 36.12408203 -6.0546875 35.23046875 C-3.36904412 32.31506501 -3.25341415 30.21087956 -2.8125 26.3125 C-2.06944444 20.06944444 -2.06944444 20.06944444 -1 19 C-1.09017996 16.80949979 -1.24666208 14.621534 -1.4375 12.4375 C-1.59025391 10.64119141 -1.59025391 10.64119141 -1.74609375 8.80859375 C-1.82988281 7.88175781 -1.91367187 6.95492187 -2 6 C-1.67 6 -1.34 6 -1 6 C-0.67 4.02 -0.34 2.04 0 0 Z " fill="#11A05B" transform="translate(345,175)"/>
<path d="M0 0 C4.64070253 -0.02499343 9.28136461 -0.04299677 13.92211914 -0.05493164 C15.49601933 -0.05991488 17.069915 -0.0667039 18.64379883 -0.07543945 C27.48603482 -0.12323532 36.2050103 -0.0673356 45 1 C45 1.99 45 2.98 45 4 C46.32 4.66 47.64 5.32 49 6 C48.67 6.66 48.34 7.32 48 8 C46.948125 7.319375 46.948125 7.319375 45.875 6.625 C40.03963203 3.32674854 34.87303197 2.68318251 28.3203125 2.5859375 C27.50754852 2.56657135 26.69478455 2.5472052 25.85739136 2.5272522 C23.28003188 2.46782117 20.70262685 2.42121819 18.125 2.375 C16.36977298 2.33678657 14.61456403 2.29773291 12.859375 2.2578125 C8.57306476 2.16215001 4.28666681 2.07798551 0 2 C0 1.34 0 0.68 0 0 Z " fill="#12A461" transform="translate(246,263)"/>
<path d="M0 0 C1.32 0.33 2.64 0.66 4 1 C2.68205013 4.9538496 0.33348657 5.93852568 -3.125 7.875 C-4.05747559 8.40009155 -4.05747559 8.40009155 -5.00878906 8.93579102 C-14.6257686 14.1592205 -24.97706027 17.71470038 -36 18 C-36 17.01 -36 16.02 -36 15 C-32.7 15 -29.4 15 -26 15 C-25.67 14.01 -25.34 13.02 -25 12 C-18.565 11.505 -18.565 11.505 -12 11 C-12 10.34 -12 9.68 -12 9 C-9.35261084 7.5393715 -8.10551666 7 -5 7 C-5 6.34 -5 5.68 -5 5 C-3.68 5 -2.36 5 -1 5 C-0.67 3.35 -0.34 1.7 0 0 Z " fill="#16C979" transform="translate(324,362)"/>
<path d="M0 0 C0.66 0 1.32 0 2 0 C1.36811627 3.42465377 0.03508836 5.71213394 -1.9375 8.5625 C-2.46214844 9.32691406 -2.98679687 10.09132813 -3.52734375 10.87890625 C-4.01332031 11.57886719 -4.49929688 12.27882813 -5 13 C-5.99 14.485 -5.99 14.485 -7 16 C-7.66 16 -8.32 16 -9 16 C-9 16.66 -9 17.32 -9 18 C-9.66 18 -10.32 18 -11 18 C-11 18.66 -11 19.32 -11 20 C-15.47058824 24 -15.47058824 24 -18 24 C-17.6875 21.625 -17.6875 21.625 -17 19 C-14 17 -14 17 -10 17 C-10 15.35 -10 13.7 -10 12 C-9.34 11.67 -8.68 11.34 -8 11 C-8 10.34 -8 9.68 -8 9 C-6.68 9 -5.36 9 -4 9 C-4.33 7.35 -4.66 5.7 -5 4 C-3.35 3.67 -1.7 3.34 0 3 C0 2.01 0 1.02 0 0 Z " fill="#13B065" transform="translate(347,339)"/>
<path d="M0 0 C0.99 0 1.98 0 3 0 C3.08732726 3.89569135 3.14050185 7.79112982 3.1875 11.6875 C3.21263672 12.79029297 3.23777344 13.89308594 3.26367188 15.02929688 C3.27333984 16.09599609 3.28300781 17.16269531 3.29296875 18.26171875 C3.3086792 19.24100342 3.32438965 20.22028809 3.34057617 21.22924805 C2.93951728 24.49205618 1.84389521 26.30840895 0 29 C-0.515625 29.86625 -1.03125 30.7325 -1.5625 31.625 C-4.76923077 36.92307692 -4.76923077 36.92307692 -8 38 C-8.33 38.66 -8.66 39.32 -9 40 C-10.32 39.67 -11.64 39.34 -13 39 C-12.34 39 -11.68 39 -11 39 C-11 38.34 -11 37.68 -11 37 C-10.113125 36.34 -9.22625 35.68 -8.3125 35 C-3.30272419 31.03491677 -0.97691849 24.93075547 1 19 C1.09543669 16.89758584 1.12985484 14.79207357 1.125 12.6875 C1.12757813 11.57761719 1.13015625 10.46773437 1.1328125 9.32421875 C1.00527335 6.13198875 0.59757773 3.13491173 0 0 Z " fill="#18B06A" transform="translate(300,179)"/>
<path d="M0 0 C7.07864027 1.15233679 14.39345977 4.34651881 19 10 C18.01 10.495 18.01 10.495 17 11 C17 10.34 17 9.68 17 9 C14.36 9.66 11.72 10.32 9 11 C7.5393715 8.35261084 7 7.10551666 7 4 C5.68 4 4.36 4 3 4 C1.25 2 1.25 2 0 0 Z " fill="#12D578" transform="translate(298,123)"/>
<path d="M0 0 C0.33 0 0.66 0 1 0 C1.65714008 8.54282109 -0.44475566 17.31460566 -6 24 C-5.63176001 17.09232563 -4.76081837 11.3618858 -2 5 C-1.34 5 -0.68 5 0 5 C0 3.35 0 1.7 0 0 Z " fill="#16AB65" transform="translate(356,314)"/>
<path d="M0 0 C9.04878118 0.32557649 17.44005755 0.72829123 26 4 C26 4.33 26 4.66 26 5 C24.824375 4.855625 23.64875 4.71125 22.4375 4.5625 C16.69299107 3.91096624 10.93035075 3.60470435 5.16015625 3.28125 C2 3 2 3 0 2 C0 1.34 0 0.68 0 0 Z " fill="#14B46B" transform="translate(271,118)"/>
<path d="M0 0 C2.64752004 2.57784846 4.94432065 4.91648098 7 8 C7 8.99 7 9.98 7 11 C7.66 11 8.32 11 9 11 C10.42944945 13.35438733 11.08661261 14.48032433 10.625 17.25 C10.41875 17.8275 10.2125 18.405 10 19 C5.60836041 15.5169755 4.33939286 11.2561023 3 6 C3 5.34 3 4.68 3 4 C1.35 3.67 -0.3 3.34 -2 3 C-1.34 2.67 -0.68 2.34 0 2 C0 1.34 0 0.68 0 0 Z " fill="#1AC177" transform="translate(342,259)"/>
<path d="M0 0 C0.33 0 0.66 0 1 0 C0.75759721 6.81151829 0.45683174 11.68055567 -4 17 C-5.04916965 13.59019864 -5.37043252 10.55615217 -5 7 C-3.0625 4.8125 -3.0625 4.8125 -1 3 C-0.67 2.01 -0.34 1.02 0 0 Z " fill="#13EF8B" transform="translate(342,205)"/>
<path d="M0 0 C1.32 0.33 2.64 0.66 4 1 C2.61375742 5.15872775 -0.23962002 6.21825071 -3.875 8.25 C-4.51308594 8.62640625 -5.15117187 9.0028125 -5.80859375 9.390625 C-7.4927672 10.34698237 -9.24440869 11.18210099 -11 12 C-11.99 11.67 -12.98 11.34 -14 11 C-13.34 11 -12.68 11 -12 11 C-12 10.34 -12 9.68 -12 9 C-9.35261084 7.5393715 -8.10551666 7 -5 7 C-5 6.34 -5 5.68 -5 5 C-3.68 5 -2.36 5 -1 5 C-0.67 3.35 -0.34 1.7 0 0 Z " fill="#15A765" transform="translate(324,362)"/>
<path d="M0 0 C3.82003611 1.91001806 4.7067031 7.12580665 6 11 C6.51195818 13.36416458 6.78996791 15.58463093 7 18 C6.34 18 5.68 18 5 18 C1.90787824 11.91643021 0.43300764 6.81987029 0 0 Z " fill="#17AC67" transform="translate(338,157)"/>
<path d="M0 0 C11.52164009 -0.3690205 11.52164009 -0.3690205 17 2 C17 2.66 17 3.32 17 4 C17.99 4.33 18.98 4.66 20 5 C19.01 5.495 19.01 5.495 18 6 C16.12264822 5.26246894 14.24609838 4.52278593 12.375 3.76953125 C8.34341668 2.46324521 4.21064043 2.25022248 0 2 C0 1.34 0 0.68 0 0 Z " fill="#15A563" transform="translate(266,157)"/>
<path d="M0 0 C2.31 0.66 4.62 1.32 7 2 C7 2.66 7 3.32 7 4 C8.32 3.67 9.64 3.34 11 3 C13.125 7.625 13.125 7.625 12 11 C12 10.34 12 9.68 12 9 C11.42765625 8.73316406 10.8553125 8.46632813 10.265625 8.19140625 C7.90688039 6.95103193 5.876888 5.54054336 3.75 3.9375 C3.04359375 3.41027344 2.3371875 2.88304687 1.609375 2.33984375 C1.07828125 1.89769531 0.5471875 1.45554687 0 1 C0 0.67 0 0.34 0 0 Z " fill="#12E787" transform="translate(296,271)"/>
<path d="M0 0 C2.31 0 4.62 0 7 0 C4.74259377 2.33524782 2.7194239 4.18705073 0 6 C0.66 6.66 1.32 7.32 2 8 C0.35 7.67 -1.3 7.34 -3 7 C-3.33 6.01 -3.66 5.02 -4 4 C-3.01 4 -2.02 4 -1 4 C-0.67 2.68 -0.34 1.36 0 0 Z " fill="#11B568" transform="translate(319,235)"/>
<path d="M0 0 C0.02717692 2.06242617 0.0464758 4.12495703 0.0625 6.1875 C0.07410156 7.33605469 0.08570313 8.48460937 0.09765625 9.66796875 C0.01192832 12.59300586 -0.32150977 15.16316291 -1 18 C-1.33 18 -1.66 18 -2 18 C-2.70055753 13.05298604 -3.15620238 8.9138601 -2 4 C-2.33 3.01 -2.66 2.02 -3 1 C-1 0 -1 0 0 0 Z " fill="#0DF48D" transform="translate(357,301)"/>
<path d="M0 0 C2.97 0 5.94 0 9 0 C9 0.99 9 1.98 9 3 C10.32 3.66 11.64 4.32 13 5 C12.67 5.66 12.34 6.32 12 7 C11.319375 6.566875 10.63875 6.13375 9.9375 5.6875 C6.6953022 3.82496084 3.45513711 2.42270352 0 1 C0 0.67 0 0.34 0 0 Z " fill="#15BF71" transform="translate(282,264)"/>
<path d="M0 0 C-0.33 0.66 -0.66 1.32 -1 2 C-5.54415034 3.47354001 -10.1271164 2.90418346 -14.8125 2.5625 C-15.99489258 2.48418945 -15.99489258 2.48418945 -17.20117188 2.40429688 C-19.13451529 2.27540731 -21.06732164 2.13850506 -23 2 C-23 1.67 -23 1.34 -23 1 C-20.29178874 0.83111377 -17.58345903 0.66482399 -14.875 0.5 C-14.11445313 0.45230469 -13.35390625 0.40460938 -12.5703125 0.35546875 C-8.3724967 0.10215228 -4.20798902 -0.05377622 0 0 Z " fill="#16EF8C" transform="translate(279,341)"/>
<path d="M0 0 C2.4375 0.75 2.4375 0.75 5 2 C5.8125 4.125 5.8125 4.125 6 6 C6.66 6 7.32 6 8 6 C8.33 5.34 8.66 4.68 9 4 C9 6.64 9 9.28 9 12 C5.81994972 8.11327187 2.89445553 4.10047867 0 0 Z " fill="#0F9C59" transform="translate(291,166)"/>
<path d="M0 0 C0 0.66 0 1.32 0 2 C-5.39068413 5.59378942 -8.53673535 6.45356243 -15 6 C-12.15344131 4.55722368 -9.28360325 3.18824896 -6.375 1.875 C-5.59898437 1.52179688 -4.82296875 1.16859375 -4.0234375 0.8046875 C-2 0 -2 0 0 0 Z " fill="#159A5B" transform="translate(296,334)"/>
<path d="M0 0 C4.61513112 1.31860889 8.09897612 3.21355437 12 6 C10.4375 6.75 10.4375 6.75 8 7 C5.45280141 5.97667131 3.13666413 4.72727704 1 3 C0.67 2.01 0.34 1.02 0 0 Z " fill="#149A5A" transform="translate(321,243)"/>
<path d="M0 0 C0.99424641 2.98273923 1.31845551 4.89505874 1 8 C-2 10 -2 10 -4.1875 9.625 C-4.785625 9.41875 -5.38375 9.2125 -6 9 C-5.34 8.01 -4.68 7.02 -4 6 C-3.34 6 -2.68 6 -2 6 C-1.34 4.02 -0.68 2.04 0 0 Z " fill="#11AE64" transform="translate(307,320)"/>
<path d="M0 0 C-3.60957611 3.2910841 -6.12637153 4.54663921 -11 5 C-10 2 -10 2 -8.3125 0.8125 C-5.45030907 -0.19313465 -3.01172092 -0.13689641 0 0 Z " fill="#11C772" transform="translate(291,219)"/>
<path d="M0 0 C4.12751449 0.60698743 7.3321148 2.03810791 11 4 C10.01 4.99 9.02 5.98 8 7 C7.67 6.01 7.34 5.02 7 4 C5.68 4 4.36 4 3 4 C1.25 2 1.25 2 0 0 Z " fill="#11A05C" transform="translate(298,123)"/>
<path d="M0 0 C3.3 0 6.6 0 10 0 C10 0.66 10 1.32 10 2 C6.7 2.33 3.4 2.66 0 3 C0 2.01 0 1.02 0 0 Z " fill="#16BC6F" transform="translate(288,377)"/>
<path d="M0 0 C1.32 0.66 2.64 1.32 4 2 C4 2.66 4 3.32 4 4 C4.66 4 5.32 4 6 4 C6 4.66 6 5.32 6 6 C6.66 6 7.32 6 8 6 C8 6.66 8 7.32 8 8 C7.01 8 6.02 8 5 8 C5 7.01 5 6.02 5 5 C2.69 4.34 0.38 3.68 -2 3 C-1.34 2.67 -0.68 2.34 0 2 C0 1.34 0 0.68 0 0 Z " fill="#18C472" transform="translate(334,251)"/>
<path d="M0 0 C0.33 0 0.66 0 1 0 C1.40178571 8.03571429 1.40178571 8.03571429 -2 12 C-1.85962479 10.18706911 -1.71255111 8.3746557 -1.5625 6.5625 C-1.48128906 5.55316406 -1.40007812 4.54382813 -1.31640625 3.50390625 C-1 1 -1 1 0 0 Z " fill="#13C374" transform="translate(352,326)"/>
<path d="M0 0 C2.62374802 5.24749603 3.09534716 8.08847633 3 14 C2.67 14 2.34 14 2 14 C2 12.02 2 10.04 2 8 C1.34 8 0.68 8 0 8 C0 5.36 0 2.72 0 0 Z " fill="#1BAA67" transform="translate(354,279)"/>
<path d="M0 0 C0.99 0 1.98 0 3 0 C2.35455571 3.48539917 0.89865603 6.02819057 -1 9 C-1.33 7.68 -1.66 6.36 -2 5 C-1.34 5 -0.68 5 0 5 C0 3.35 0 1.7 0 0 Z " fill="#129457" transform="translate(339,213)"/>
<path d="M0 0 C0.33 0 0.66 0 1 0 C1.3125 2.3125 1.3125 2.3125 1 5 C-1.5 6.8125 -1.5 6.8125 -4 8 C-2.66666667 5.33333333 -1.33333333 2.66666667 0 0 Z M-7 8 C-6.01 8.33 -5.02 8.66 -4 9 C-5.98 9.99 -5.98 9.99 -8 11 C-7.67 10.01 -7.34 9.02 -7 8 Z " fill="#06F78B" transform="translate(299,208)"/>
<path d="M0 0 C0.66 0 1.32 0 2 0 C1.67 1.65 1.34 3.3 1 5 C0.01 5.33 -0.98 5.66 -2 6 C-1.125 1.125 -1.125 1.125 0 0 Z " fill="#11CD76" transform="translate(331,357)"/>
<path d="M0 0 C1.98 0 3.96 0 6 0 C6 0.99 6 1.98 6 3 C4.35 3.33 2.7 3.66 1 4 C0.67 2.68 0.34 1.36 0 0 Z " fill="#0EF18A" transform="translate(328,250)"/>
<path d="M0 0 C2.31 0.66 4.62 1.32 7 2 C7.33 3.32 7.66 4.64 8 6 C4.63408134 4.55746343 2.48952921 2.66735273 0 0 Z " fill="#14AA66" transform="translate(296,271)"/>
<path d="M0 0 C0.66 0.33 1.32 0.66 2 1 C1.67 3.64 1.34 6.28 1 9 C0.34 8.67 -0.32 8.34 -1 8 C-1.04241723 5.66705225 -1.04092937 3.33297433 -1 1 C-0.67 0.67 -0.34 0.34 0 0 Z " fill="#0EF389" transform="translate(301,171)"/>
</svg>
