<?xml version="1.0" encoding="UTF-8"?>
<svg version="1.1" xmlns="http://www.w3.org/2000/svg" width="818" height="1184">
<path d="M0 0 C63.36 0 126.72 0 192 0 C191.99363525 16.21382812 191.98727051 32.42765625 191.98071289 49.1328125 C191.97748996 59.96061226 191.97441085 70.78841095 191.97291565 81.61621094 C191.97281884 82.30413135 191.97272204 82.99205176 191.9726223 83.70081824 C191.96948766 106.86598087 191.97595284 130.03113047 191.98960876 153.19628906 C191.99027377 154.33063389 191.99027377 154.33063389 191.99095221 155.48789477 C192.00063995 171.92426976 192.0118822 188.36064333 192.02472496 204.79701614 C192.03101393 212.85784128 192.03695952 220.91866666 192.04272461 228.97949219 C192.04330414 229.78162541 192.04388367 230.58375864 192.04448076 231.41019893 C192.06309163 257.39235722 192.05904442 283.3744517 192.0432008 309.35660991 C192.02703441 336.06490652 192.03381954 362.7731019 192.06933117 389.48138217 C192.07434052 393.25693598 192.07908851 397.03249009 192.08367729 400.80804443 C192.08458848 401.55110062 192.08549967 402.29415681 192.08643847 403.05972986 C192.10041302 415.00311573 192.09031606 426.94636479 192.07113311 438.88973837 C192.05234714 450.90768558 192.05912144 462.92540598 192.09166015 474.94332564 C192.10857817 481.45060101 192.11351043 487.95747148 192.08818626 494.46474075 C192.0652258 500.4292116 192.07480614 506.39273611 192.10963994 512.35714126 C192.11657086 514.50814719 192.11183388 516.65923124 192.0938629 518.81017327 C192.00269393 530.56449052 192.73838245 539.99809525 198.23722738 550.52885818 C204.41286456 562.68953744 206.63923228 576.68837182 209 590 C209.176521 590.92216309 209.35304199 591.84432617 209.53491211 592.79443359 C210.06307047 596.43470619 210.19782834 600.01702395 210.23828125 603.6875 C210.24798447 604.41891205 210.25768768 605.1503241 210.26768494 605.90390015 C210.29259153 608.26932287 210.30521314 610.63445923 210.3125 613 C210.31511841 613.80657043 210.31773682 614.61314087 210.32043457 615.44415283 C210.3250342 628.66840671 209.28909908 641.1441892 206 654 C205.68804688 655.27875 205.37609375 656.5575 205.0546875 657.875 C202.48381963 667.5535614 199.29683975 678.03229336 194.43547058 686.83200073 C192.87908802 690.26684563 192.60639948 692.53344555 192.56762695 696.28173828 C192.53792061 698.13430992 192.53792061 698.13430992 192.50761414 700.02430725 C192.50081633 701.37297393 192.4943831 702.72164249 192.48828125 704.0703125 C192.47143423 705.48943016 192.45336509 706.90853377 192.43415833 708.32762146 C192.38637424 712.13653384 192.35695843 715.94539101 192.33084869 719.75450516 C192.30630396 722.92547551 192.26956233 726.09625327 192.23250961 729.26709843 C192.02756459 746.86021742 191.98905088 764.44745944 192.08959961 782.04150391 C192.20160604 801.93067209 191.95998797 821.28801114 189 841 C188.86078125 842.00095703 188.7215625 843.00191406 188.578125 844.03320312 C183.20756201 882.39791933 171.71224992 920.06656909 155 955 C154.64486328 955.75039551 154.28972656 956.50079102 153.92382812 957.27392578 C151.71910722 961.90577364 149.39088379 966.46195259 147 971 C146.61972656 971.73395996 146.23945312 972.46791992 145.84765625 973.22412109 C133.0071939 997.90508966 116.8633632 1020.71078632 99 1042 C98.2265625 1042.9590625 97.453125 1043.918125 96.65625 1044.90625 C89.74526195 1053.35301318 82.13018408 1061.08560987 74.4375 1068.8125 C73.90697021 1069.34820618 73.37644043 1069.88391235 72.82983398 1070.43585205 C66.59613952 1076.7174129 60.26880088 1082.63121778 53.32910156 1088.13623047 C51.25248245 1089.79796111 49.27270361 1091.51641857 47.3125 1093.3125 C-11.61553019 1145.35754305 -91.50890894 1175.15881087 -169 1183 C-169.87043945 1183.0942627 -170.74087891 1183.18852539 -171.63769531 1183.28564453 C-183.55438169 1184.40071445 -195.54251107 1184.2438929 -207.5 1184.25 C-208.68529297 1184.25067474 -209.87058594 1184.25134949 -211.09179688 1184.25204468 C-228.93692456 1184.23590902 -246.33871531 1183.73502596 -264 1181 C-265.18803223 1180.82307617 -266.37606445 1180.64615234 -267.60009766 1180.46386719 C-289.05307358 1177.21350135 -310.24705095 1172.63178431 -330.83691406 1165.72460938 C-332.39141919 1165.2038677 -333.94836933 1164.69040378 -335.50683594 1164.18164062 C-385.75324609 1147.74132008 -432.42232912 1121.06387471 -472 1086 C-473.30517578 1084.84564453 -473.30517578 1084.84564453 -474.63671875 1083.66796875 C-477.10599623 1081.46112656 -479.55475061 1079.23342688 -482 1077 C-483.0858845 1076.01947255 -484.17182538 1075.03900754 -485.2578125 1074.05859375 C-490.47016569 1069.32956921 -495.56047833 1064.64660517 -500.078125 1059.234375 C-502.16661265 1056.80629586 -504.35134715 1054.49237959 -506.55444336 1052.16870117 C-513.531957 1044.78730553 -519.89057286 1037.10828984 -526 1029 C-526.54269531 1028.28714844 -527.08539062 1027.57429688 -527.64453125 1026.83984375 C-552.66478878 993.91250709 -571.9124705 957.85008134 -586 919 C-586.32452148 918.11699219 -586.64904297 917.23398437 -586.98339844 916.32421875 C-594.8688642 894.67916224 -600.32141007 872.11971579 -603.875 849.375 C-604.06594238 848.15772217 -604.25688477 846.94044434 -604.45361328 845.6862793 C-607.35434573 825.95840581 -608.37903629 806.36557547 -608.3125 786.4375 C-608.30976578 784.72929077 -608.30976578 784.72929077 -608.30697632 782.98657227 C-608.25987826 765.46916109 -607.70164009 748.33530425 -605 731 C-604.82839355 729.8641748 -604.65678711 728.72834961 -604.47998047 727.55810547 C-592.87619567 652.57421998 -560.85097538 579.86552698 -509.37109375 523.6171875 C-508.08516937 522.19779815 -506.80524894 520.7723942 -505.56005859 519.31713867 C-500.70544896 513.65246048 -495.52277129 508.33660832 -490.24951172 503.06420898 C-488.76106763 501.57358385 -487.28082723 500.07512983 -485.80078125 498.57617188 C-479.52754053 492.26651176 -472.974409 486.53954742 -466 481 C-464.93775567 480.11266636 -463.8793778 479.22064109 -462.828125 478.3203125 C-446.15945091 464.12668396 -427.92813045 451.95863675 -409 441 C-408.32662598 440.60844727 -407.65325195 440.21689453 -406.95947266 439.81347656 C-365.21783509 415.68052887 -319.16732207 399.69546628 -271.5625 392.1875 C-270.33329834 391.99260986 -269.10409668 391.79771973 -267.83764648 391.59692383 C-248.08128408 388.64601959 -228.46278393 387.62074034 -208.5 387.6875 C-207.36280518 387.68932281 -206.22561035 387.69114563 -205.05395508 387.69302368 C-187.19429754 387.74108233 -169.68575444 388.32547974 -152 391 C-150.84854492 391.17160645 -149.69708984 391.34321289 -148.51074219 391.52001953 C-95.82961576 399.62871011 -45.69667039 417.58199776 0 445 C0 298.15 0 151.3 0 0 Z " fill="#000000" transform="translate(608,0)"/>
<path d="M0 0 C31.36185313 -0.96770953 61.86652078 3.47193704 91.39941406 14.1328125 C93.00510819 19.06667264 91.6240688 22.70887636 90.08691406 27.4453125 C87.09558584 36.98176914 85.03607337 45.83097832 84.27441406 55.8203125 C84.19094727 56.89249023 84.10748047 57.96466797 84.02148438 59.06933594 C81.70450102 90.21148359 86.7920654 120.94209068 100.39941406 149.1328125 C100.69686523 149.75365723 100.99431641 150.37450195 101.30078125 151.01416016 C108.86604196 166.56588259 118.91227632 180.38451158 131.01171875 192.70996094 C132.30018525 194.0310698 133.55824452 195.38164921 134.81347656 196.734375 C154.18618786 217.14375313 179.55682411 230.48989709 206.21191406 238.5078125 C207.32026611 238.84184082 208.42861816 239.17586914 209.57055664 239.52001953 C219.86010282 242.49090715 230.14448319 244.18922564 240.83691406 244.6953125 C245.44069153 244.91932948 249.86657818 245.28509512 254.39941406 246.1328125 C254.62342701 264.81300345 253.13303003 283.04622042 248.39941406 301.1328125 C247.99983304 302.73278776 247.60142751 304.33305699 247.20410156 305.93359375 C236.69631242 347.65239036 216.25208783 385.10390327 186.39941406 416.1328125 C185.79967773 416.75978027 185.19994141 417.38674805 184.58203125 418.03271484 C175.74063135 427.22785973 166.6808033 435.58448806 156.39941406 443.1328125 C155.27046886 443.98041687 154.14156263 444.82807316 153.01269531 445.67578125 C121.05747729 469.36324968 83.54287384 483.87671047 44.39941406 490.1328125 C43.72023926 490.24995605 43.04106445 490.36709961 42.34130859 490.48779297 C28.30921668 492.86713231 14.01812461 492.40582962 -0.16308594 492.18603516 C-2.16295817 492.15507123 -4.16299003 492.13056203 -6.16308594 492.12255859 C-35.88487723 491.99279894 -67.87691428 482.59263421 -94.60058594 470.1328125 C-95.30119141 469.80667969 -96.00179687 469.48054688 -96.72363281 469.14453125 C-123.02821335 456.74556465 -146.12507613 439.73915623 -166.60058594 419.1328125 C-167.41140625 418.34519531 -168.22222656 417.55757812 -169.05761719 416.74609375 C-169.83492188 415.98683594 -170.61222656 415.22757813 -171.41308594 414.4453125 C-172.20328125 413.67832031 -172.99347656 412.91132812 -173.80761719 412.12109375 C-175.60058594 410.1328125 -175.60058594 410.1328125 -175.60058594 408.1328125 C-176.26058594 408.1328125 -176.92058594 408.1328125 -177.60058594 408.1328125 C-178.90991211 406.73095703 -178.90991211 406.73095703 -180.39355469 404.765625 C-180.93794189 404.04987305 -181.4823291 403.33412109 -182.04321289 402.59667969 C-182.619021 401.82485352 -183.1948291 401.05302734 -183.78808594 400.2578125 C-184.3774292 399.47567383 -184.96677246 398.69353516 -185.57397461 397.88769531 C-207.586434 368.56205583 -222.21671784 337.57159822 -231.60058594 302.1328125 C-232.09171875 300.29783203 -232.09171875 300.29783203 -232.59277344 298.42578125 C-239.60978651 269.09177301 -240.44231773 235.73558178 -234.60058594 206.1328125 C-234.3303925 204.63162945 -234.06085965 203.13032735 -233.79199219 201.62890625 C-225.77097692 158.85936182 -208.08171672 120.14144282 -179.60058594 87.1328125 C-178.63185547 85.99779297 -178.63185547 85.99779297 -177.64355469 84.83984375 C-166.11965707 71.68541377 -153.72184911 59.46444808 -139.60058594 49.1328125 C-138.47274748 48.28677058 -137.34514413 47.44041514 -136.21777344 46.59375 C-96.65064758 17.23840885 -49.02134353 1.8082188 0 0 Z " fill="#FEFEFE" transform="translate(391.6005859375,539.8671875)"/>
<path d="M0 0 C0.62664551 0.30518555 1.25329102 0.61037109 1.89892578 0.92480469 C17.30823012 8.49800494 32.00223612 18.68650549 44 31 C45.24726945 32.04493463 46.49758791 33.08623468 47.75 34.125 C76.32128789 58.9369079 92.91318358 100.07924554 97 137 C97.37796115 142.80673635 97.38873289 148.62070712 97.375 154.4375 C97.37512085 155.22658752 97.3752417 156.01567505 97.37536621 156.82867432 C97.34693241 169.90524886 96.25165276 182.29055229 93 195 C92.53207031 196.918125 92.53207031 196.918125 92.0546875 198.875 C91.14574524 202.29690026 90.11595973 205.64029085 89 209 C88.40638672 210.83304688 88.40638672 210.83304688 87.80078125 212.703125 C73.68080586 254.22724057 41.0287578 289.67753721 2 309 C-41.02736394 329.89530075 -89.02877879 332.2852115 -134.1484375 317.01220703 C-149.11359562 311.7000884 -162.187415 304.32244054 -175 295 C-175.61536621 294.55962402 -176.23073242 294.11924805 -176.86474609 293.66552734 C-213.28895357 267.37867163 -237.78213945 226.84179072 -245.125 182.625 C-248.93443094 156.02247393 -247.08577665 130.07620646 -239.60498047 104.34326172 C-239.04813661 102.18644679 -238.69788948 100.11972842 -238.44140625 97.91015625 C-238.29574219 96.94980469 -238.15007812 95.98945312 -238 95 C-237.01 94.505 -237.01 94.505 -236 94 C-235.18399437 92.25859668 -234.44736041 90.47971627 -233.75 88.6875 C-216.80116461 46.95591983 -183.27269049 13.93330865 -141.98876953 -3.8671875 C-131.56090087 -8.25490836 -121.11638504 -11.82061342 -110 -14 C-109.24477051 -14.14953125 -108.48954102 -14.2990625 -107.71142578 -14.453125 C-71.22595072 -21.35598348 -33.2848363 -16.51381966 0 0 Z " fill="#AC1111" transform="translate(721,459)"/>
</svg>
