<?xml version="1.0" encoding="UTF-8"?>
<svg version="1.1" xmlns="http://www.w3.org/2000/svg" width="818" height="1184">
<path d="M0 0 C63.36 0 126.72 0 192 0 C191.99363525 16.21382812 191.98727051 32.42765625 191.98071289 49.1328125 C191.97748996 59.96061226 191.97441085 70.78841095 191.97291565 81.61621094 C191.97281884 82.30413135 191.97272204 82.99205176 191.9726223 83.70081824 C191.96948766 106.86598087 191.97595284 130.03113047 191.98960876 153.19628906 C191.99027377 154.33063389 191.99027377 154.33063389 191.99095221 155.48789477 C192.00063995 171.92426976 192.0118822 188.36064333 192.02472496 204.79701614 C192.03101393 212.85784128 192.03695952 220.91866666 192.04272461 228.97949219 C192.04330414 229.78162541 192.04388367 230.58375864 192.04448076 231.41019893 C192.06309163 257.39235722 192.05904442 283.3744517 192.0432008 309.35660991 C192.02703441 336.06490652 192.03381954 362.7731019 192.06933117 389.48138217 C192.07434052 393.25693598 192.07908851 397.03249009 192.08367729 400.80804443 C192.08458848 401.55110062 192.08549967 402.29415681 192.08643847 403.05972986 C192.10041302 415.00311573 192.09031606 426.94636479 192.07113311 438.88973837 C192.05234714 450.90768558 192.05912144 462.92540598 192.09166015 474.94332564 C192.10857817 481.45060101 192.11351043 487.95747148 192.08818626 494.46474075 C192.0652258 500.4292116 192.07480614 506.39273611 192.10963994 512.35714126 C192.11657086 514.50814719 192.11183388 516.65923124 192.0938629 518.81017327 C192.00269393 530.56449052 192.73838245 539.99809525 198.23722738 550.52885818 C204.41286456 562.68953744 206.63923228 576.68837182 209 590 C209.176521 590.92216309 209.35304199 591.84432617 209.53491211 592.79443359 C210.06307047 596.43470619 210.19782834 600.01702395 210.23828125 603.6875 C210.24798447 604.41891205 210.25768768 605.1503241 210.26768494 605.90390015 C210.29259153 608.26932287 210.30521314 610.63445923 210.3125 613 C210.31511841 613.80657043 210.31773682 614.61314087 210.32043457 615.44415283 C210.3250342 628.66840671 209.28909908 641.1441892 206 654 C205.68804688 655.27875 205.37609375 656.5575 205.0546875 657.875 C202.48381963 667.5535614 199.29683975 678.03229336 194.43547058 686.83200073 C192.87908802 690.26684563 192.60639948 692.53344555 192.56762695 696.28173828 C192.53792061 698.13430992 192.53792061 698.13430992 192.50761414 700.02430725 C192.50081633 701.37297393 192.4943831 702.72164249 192.48828125 704.0703125 C192.47143423 705.48943016 192.45336509 706.90853377 192.43415833 708.32762146 C192.38637424 712.13653384 192.35695843 715.94539101 192.33084869 719.75450516 C192.30630396 722.92547551 192.26956233 726.09625327 192.23250961 729.26709843 C192.02756459 746.86021742 191.98905088 764.44745944 192.08959961 782.04150391 C192.20160604 801.93067209 191.95998797 821.28801114 189 841 C188.86078125 842.00095703 188.7215625 843.00191406 188.578125 844.03320312 C183.20756201 882.39791933 171.71224992 920.06656909 155 955 C154.64486328 955.75039551 154.28972656 956.50079102 153.92382812 957.27392578 C151.71910722 961.90577364 149.39088379 966.46195259 147 971 C146.61972656 971.73395996 146.23945312 972.46791992 145.84765625 973.22412109 C133.0071939 997.90508966 116.8633632 1020.71078632 99 1042 C98.2265625 1042.9590625 97.453125 1043.918125 96.65625 1044.90625 C89.74526195 1053.35301318 82.13018408 1061.08560987 74.4375 1068.8125 C73.90697021 1069.34820618 73.37644043 1069.88391235 72.82983398 1070.43585205 C66.59613952 1076.7174129 60.26880088 1082.63121778 53.32910156 1088.13623047 C51.25248245 1089.79796111 49.27270361 1091.51641857 47.3125 1093.3125 C-11.61553019 1145.35754305 -91.50890894 1175.15881087 -169 1183 C-169.87043945 1183.0942627 -170.74087891 1183.18852539 -171.63769531 1183.28564453 C-183.55438169 1184.40071445 -195.54251107 1184.2438929 -207.5 1184.25 C-208.68529297 1184.25067474 -209.87058594 1184.25134949 -211.09179688 1184.25204468 C-228.93692456 1184.23590902 -246.33871531 1183.73502596 -264 1181 C-265.18803223 1180.82307617 -266.37606445 1180.64615234 -267.60009766 1180.46386719 C-289.05307358 1177.21350135 -310.24705095 1172.63178431 -330.83691406 1165.72460938 C-332.39141919 1165.2038677 -333.94836933 1164.69040378 -335.50683594 1164.18164062 C-385.75324609 1147.74132008 -432.42232912 1121.06387471 -472 1086 C-473.30517578 1084.84564453 -473.30517578 1084.84564453 -474.63671875 1083.66796875 C-477.10599623 1081.46112656 -479.55475061 1079.23342688 -482 1077 C-483.0858845 1076.01947255 -484.17182538 1075.03900754 -485.2578125 1074.05859375 C-490.47016569 1069.32956921 -495.56047833 1064.64660517 -500.078125 1059.234375 C-502.16661265 1056.80629586 -504.35134715 1054.49237959 -506.55444336 1052.16870117 C-513.531957 1044.78730553 -519.89057286 1037.10828984 -526 1029 C-526.54269531 1028.28714844 -527.08539062 1027.57429688 -527.64453125 1026.83984375 C-552.66478878 993.91250709 -571.9124705 957.85008134 -586 919 C-586.32452148 918.11699219 -586.64904297 917.23398437 -586.98339844 916.32421875 C-594.8688642 894.67916224 -600.32141007 872.11971579 -603.875 849.375 C-604.06594238 848.15772217 -604.25688477 846.94044434 -604.45361328 845.6862793 C-607.35434573 825.95840581 -608.37903629 806.36557547 -608.3125 786.4375 C-608.30976578 784.72929077 -608.30976578 784.72929077 -608.30697632 782.98657227 C-608.25987826 765.46916109 -607.70164009 748.33530425 -605 731 C-604.82839355 729.8641748 -604.65678711 728.72834961 -604.47998047 727.55810547 C-592.87619567 652.57421998 -560.85097538 579.86552698 -509.37109375 523.6171875 C-508.08516937 522.19779815 -506.80524894 520.7723942 -505.56005859 519.31713867 C-500.70544896 513.65246048 -495.52277129 508.33660832 -490.24951172 503.06420898 C-488.76106763 501.57358385 -487.28082723 500.07512983 -485.80078125 498.57617188 C-479.52754053 492.26651176 -472.974409 486.53954742 -466 481 C-464.93775567 480.11266636 -463.8793778 479.22064109 -462.828125 478.3203125 C-446.15945091 464.12668396 -427.92813045 451.95863675 -409 441 C-408.32662598 440.60844727 -407.65325195 440.21689453 -406.95947266 439.81347656 C-365.21783509 415.68052887 -319.16732207 399.69546628 -271.5625 392.1875 C-270.33329834 391.99260986 -269.10409668 391.79771973 -267.83764648 391.59692383 C-248.08128408 388.64601959 -228.46278393 387.62074034 -208.5 387.6875 C-207.36280518 387.68932281 -206.22561035 387.69114563 -205.05395508 387.69302368 C-187.19429754 387.74108233 -169.68575444 388.32547974 -152 391 C-150.84854492 391.17160645 -149.69708984 391.34321289 -148.51074219 391.52001953 C-95.82961576 399.62871011 -45.69667039 417.58199776 0 445 C0 298.15 0 151.3 0 0 Z " fill="#FEFEFE" transform="translate(608,0)"/>
<path d="M0 0 C43.34752628 -0.93825814 84.27671103 15.22523605 117.01953125 43.12890625 C118.70615583 44.7753731 120.37464831 46.44073692 122.01953125 48.12890625 C123.2668007 49.17384088 124.51711916 50.21514093 125.76953125 51.25390625 C154.34081914 76.06581415 170.93271483 117.20815179 175.01953125 154.12890625 C175.3974924 159.9356426 175.40826414 165.74961337 175.39453125 171.56640625 C175.3946521 172.35549377 175.39477295 173.1445813 175.39489746 173.95758057 C175.36646366 187.03415511 174.27118401 199.41945854 171.01953125 212.12890625 C170.70757813 213.40765625 170.395625 214.68640625 170.07421875 216.00390625 C169.16527649 219.42580651 168.13549098 222.7691971 167.01953125 226.12890625 C166.42591797 227.96195313 166.42591797 227.96195313 165.8203125 229.83203125 C152.01415087 270.43328127 120.23430333 305.70968843 82.22607422 325.04296875 C76.25666432 327.98077969 70.16674861 330.58969022 64.01953125 333.12890625 C63.15457031 333.51691406 62.28960938 333.90492188 61.3984375 334.3046875 C43.16234855 342.2695223 22.61507723 343.37978075 3.01953125 344.12890625 C3.05433594 345.22203125 3.08914063 346.31515625 3.125 347.44140625 C3.96497335 385.62659458 -6.68875889 425.00869673 -25.03125 458.390625 C-25.87242622 459.93105059 -26.6935842 461.48237028 -27.51171875 463.03515625 C-37.54502905 481.98696459 -50.30411106 499.00976314 -65.24560547 514.34716797 C-66.93045146 516.07753752 -68.59843814 517.82294834 -70.265625 519.5703125 C-77.62393708 527.19619956 -85.46930622 533.82809829 -93.98046875 540.12890625 C-94.84091797 540.77255127 -94.84091797 540.77255127 -95.71875 541.42919922 C-104.45861941 547.94217752 -113.52395866 553.71697277 -122.98046875 559.12890625 C-124.10324219 559.78503906 -125.22601562 560.44117188 -126.3828125 561.1171875 C-160.67430317 580.36516708 -200.87670729 590.60262006 -240.13720703 590.38964844 C-242.47975518 590.37890952 -244.82153695 590.38963654 -247.1640625 590.40234375 C-314.03819714 590.46701386 -374.29617612 560.42599696 -421.16796875 514.12890625 C-435.15360143 500.0828363 -447.18532349 483.34877162 -456.98046875 466.12890625 C-457.36267578 465.45875488 -457.74488281 464.78860352 -458.13867188 464.09814453 C-469.53962553 443.89352263 -477.03695928 422.4970922 -482.98046875 400.12890625 C-483.30789063 398.92878906 -483.6353125 397.72867187 -483.97265625 396.4921875 C-490.88211451 368.10642342 -491.79529892 335.00088216 -486.38183594 306.29736328 C-486.01010113 304.28900042 -485.6996014 302.26956439 -485.39453125 300.25 C-479.85331493 265.74333474 -465.41110194 231.42517914 -444.98046875 203.12890625 C-444.52736328 202.48937012 -444.07425781 201.84983398 -443.60742188 201.19091797 C-436.6598937 191.4152979 -429.0815867 182.49858301 -420.71533203 173.91064453 C-419.03048604 172.18027498 -417.36249936 170.43486416 -415.6953125 168.6875 C-408.33700042 161.06161294 -400.49163128 154.42971421 -391.98046875 148.12890625 C-391.40683594 147.69980957 -390.83320313 147.27071289 -390.2421875 146.82861328 C-377.47200449 137.31223254 -363.87629146 129.2667519 -349.70800781 122.01367188 C-348.16589018 121.22387053 -346.63122862 120.41954965 -345.09765625 119.61328125 C-324.41133843 109.35467132 -301.58122606 104.09780218 -278.98046875 100.12890625 C-278.19655762 99.98340332 -277.41264648 99.83790039 -276.60498047 99.68798828 C-255.46409174 95.86771249 -231.12786873 96.77652679 -209.98046875 100.12890625 C-208.56007574 100.32681633 -207.13949645 100.52339335 -205.71875 100.71875 C-192.19265962 102.68018306 -178.52017987 105.76782198 -165.62109375 110.3125 C-162.9240678 111.14634382 -160.78491235 111.29387352 -157.98046875 111.12890625 C-157.68914062 110.401875 -157.3978125 109.67484375 -157.09765625 108.92578125 C-139.1640177 64.93761123 -105.70723258 30.82376085 -61.796875 12.34765625 C-52.03528224 8.35230706 -42.296216 5.30875465 -31.98046875 3.12890625 C-30.46259766 2.80792969 -30.46259766 2.80792969 -28.9140625 2.48046875 C-19.35364122 0.68545088 -9.69305298 0.41922772 0 0 Z " fill="#000000" transform="translate(642.98046875,441.87109375)"/>
<path d="M0 0 C43.34752628 -0.93825814 84.27671103 15.22523605 117.01953125 43.12890625 C118.70615583 44.7753731 120.37464831 46.44073692 122.01953125 48.12890625 C123.2668007 49.17384088 124.51711916 50.21514093 125.76953125 51.25390625 C154.34081914 76.06581415 170.93271483 117.20815179 175.01953125 154.12890625 C175.3974924 159.9356426 175.40826414 165.74961337 175.39453125 171.56640625 C175.3946521 172.35549377 175.39477295 173.1445813 175.39489746 173.95758057 C175.36646366 187.03415511 174.27118401 199.41945854 171.01953125 212.12890625 C170.55160156 214.04703125 170.55160156 214.04703125 170.07421875 216.00390625 C169.16527649 219.42580651 168.13549098 222.7691971 167.01953125 226.12890625 C166.42591797 227.96195313 166.42591797 227.96195313 165.8203125 229.83203125 C152.01415087 270.43328127 120.23430333 305.70968843 82.22607422 325.04296875 C76.25666432 327.98077969 70.16674861 330.58969022 64.01953125 333.12890625 C63.15457031 333.51691406 62.28960938 333.90492188 61.3984375 334.3046875 C45.22917165 341.36681204 26.45027506 343.36951214 9.01953125 344.12890625 C8.30619629 344.16290527 7.59286133 344.1969043 6.85791016 344.23193359 C-30.40922181 345.79898269 -66.97523375 333.96072389 -96.98046875 312.12890625 C-97.59583496 311.68853027 -98.21120117 311.2481543 -98.84521484 310.79443359 C-135.2681015 284.5085311 -159.82080569 243.92725875 -167.10546875 199.69140625 C-170.77778051 173.74040314 -169.27689306 149.46459368 -162.3203125 124.28125 C-161.4708146 121.18298158 -160.79298561 118.19838927 -160.421875 115.0078125 C-160.27621094 114.05777344 -160.13054687 113.10773438 -159.98046875 112.12890625 C-158.99046875 111.63390625 -158.99046875 111.63390625 -157.98046875 111.12890625 C-157.16446312 109.38750293 -156.42782916 107.60862252 -155.73046875 105.81640625 C-138.78163336 64.08482608 -105.25315924 31.0622149 -63.96923828 13.26171875 C-53.51347151 8.86225923 -43.07649051 5.47363657 -31.98046875 3.12890625 C-30.96855469 2.91492188 -29.95664062 2.7009375 -28.9140625 2.48046875 C-19.35364122 0.68545088 -9.69305298 0.41922772 0 0 Z " fill="#AC1111" transform="translate(642.98046875,441.87109375)"/>
</svg>
